<?xml version="1.0" encoding="utf-8"?>
<!-- Generator: Adobe Illustrator 16.0.0, SVG Export Plug-In . SVG Version: 6.00 Build 0)  -->
<!DOCTYPE svg PUBLIC "-//W3C//DTD SVG 1.1//EN" "http://www.w3.org/Graphics/SVG/1.1/DTD/svg11.dtd">
<svg version="1.1" id="Layer_1" xmlns="http://www.w3.org/2000/svg" xmlns:xlink="http://www.w3.org/1999/xlink" x="0px" y="0px"
	 width="34px" height="34px" viewBox="0 0 34 34" enable-background="new 0 0 34 34" xml:space="preserve">
<g>
	<g>
		<circle fill="#3BB54A" cx="17" cy="17" r="17"/>
	</g>
	<path fill="#FFFFFF" d="M17,10.557c-0.646,0-1.272,0.082-1.871,0.232V9.505V9.35c0-0.033-0.004-0.066-0.011-0.098
		C15,7.671,13.77,6.501,12.268,6.501s-2.733,1.17-2.852,2.751c-0.006,0.032-0.011,5.405-0.011,5.405v3.495
		c0,0.023,0.001,0.049,0.001,0.072c0.04,4.161,3.424,7.522,7.594,7.522c4.193,0,7.596-3.399,7.596-7.597
		C24.596,13.958,21.193,10.557,17,10.557 M17,24.581c-3.55,0-6.428-2.879-6.428-6.429V9.406c0-0.944,0.759-1.711,1.696-1.711
		c0.936,0,1.695,0.767,1.695,1.711l-0.003,8.671c0,1.681,1.359,3.121,3.041,3.121c1.681,0,3.045-1.363,3.045-3.046
		c0-1.681-1.364-3.044-3.045-3.044c-0.706,0-1.354,0.24-1.871,0.643v-1.302c0.563-0.285,1.198-0.446,1.871-0.446
		c2.291,0,4.149,1.858,4.149,4.149c0,2.291-1.858,4.149-4.149,4.149c-2.292,0-4.149-1.858-4.149-4.149V9.35
		c0-0.286-0.262-0.556-0.583-0.556c-0.323,0-0.584,0.271-0.584,0.556v8.802c0,0.135,0.006,0.266,0.017,0.396
		c0.203,2.75,2.498,4.92,5.3,4.92c2.938,0,5.314-2.381,5.314-5.315c0-2.936-2.379-5.315-5.314-5.315
		c-0.658,0-1.288,0.12-1.871,0.339v-1.174c0.593-0.18,1.22-0.277,1.871-0.277c3.549,0,6.43,2.878,6.43,6.427
		C23.432,21.703,20.549,24.581,17,24.581 M15.129,18.152c0-1.032,0.838-1.871,1.871-1.871c1.032,0,1.871,0.839,1.871,1.871
		c0,1.033-0.839,1.869-1.871,1.869C15.967,20.021,15.129,19.188,15.129,18.152"/>
</g>
</svg>
