<?xml version="1.0" encoding="utf-8"?>
<!-- Generator: Adobe Illustrator 16.0.0, SVG Export Plug-In . SVG Version: 6.00 Build 0)  -->
<!DOCTYPE svg PUBLIC "-//W3C//DTD SVG 1.1//EN" "http://www.w3.org/Graphics/SVG/1.1/DTD/svg11.dtd">
<svg version="1.1" id="Layer_1" xmlns="http://www.w3.org/2000/svg" xmlns:xlink="http://www.w3.org/1999/xlink" x="0px" y="0px"
	 width="25px" height="21px" viewBox="0 0 25 21" enable-background="new 0 0 25 21" xml:space="preserve">
<path fill="#FFFFFF" d="M23.75,3H1.25C0.56,3,0,2.329,0,1.5S0.56,0,1.25,0h22.5C24.44,0,25,0.671,25,1.5S24.44,3,23.75,3z"/>
<path fill="#FFFFFF" d="M23.75,12H1.25C0.56,12,0,11.328,0,10.5C0,9.671,0.56,9,1.25,9h22.5C24.44,9,25,9.671,25,10.5
	C25,11.328,24.44,12,23.75,12z"/>
<path fill="#FFFFFF" d="M23.75,21H1.25C0.56,21,0,20.33,0,19.5C0,18.673,0.56,18,1.25,18h22.5c0.69,0,1.25,0.673,1.25,1.5
	C25,20.33,24.44,21,23.75,21z"/>
</svg>
