<?xml version="1.0" encoding="utf-8"?>
<!-- Generator: Adobe Illustrator 16.0.0, SVG Export Plug-In . SVG Version: 6.00 Build 0)  -->
<!DOCTYPE svg PUBLIC "-//W3C//DTD SVG 1.1//EN" "http://www.w3.org/Graphics/SVG/1.1/DTD/svg11.dtd">
<svg version="1.1" id="Layer_1" xmlns="http://www.w3.org/2000/svg" xmlns:xlink="http://www.w3.org/1999/xlink" x="0px" y="0px"
	 width="34px" height="34px" viewBox="0 0 34 34" enable-background="new 0 0 34 34" xml:space="preserve">
<g>
	<circle fill="#42B649" cx="17" cy="17" r="17"/>
	<g>
		<path fill="#FFFFFF" d="M23.073,9.859H10.588c-1.84,0-3.332,1.491-3.332,3.332v6.467c0,1.84,1.491,3.332,3.332,3.332h4.694
			l1.548,3.055l1.755-3.055h4.487c1.841,0,3.332-1.492,3.332-3.332v-6.467C26.406,11.35,24.914,9.859,23.073,9.859z"/>
		<path fill="#F57F20" d="M11.393,15.033c-0.34,0-0.657,0.094-0.93,0.255v-1.675h-1.25v5.069h1.249v-0.229
			c0.273,0.162,0.59,0.256,0.93,0.256c1.014,0,1.837-0.823,1.837-1.837C13.229,15.857,12.407,15.033,11.393,15.033z M11.258,17.617
			c-0.413,0-0.747-0.334-0.747-0.747s0.334-0.747,0.747-0.747c0.413,0,0.747,0.334,0.747,0.747S11.671,17.617,11.258,17.617z"/>
		<g>
			<path fill="#F57F20" d="M15.22,14.836c-0.127-0.512-0.501-1.239-1.599-1.224v0.979c0,0,0.465,0,0.465,0.734v3.38h1.2v-3.38V15.32
				C15.286,15.283,15.282,15.085,15.22,14.836z"/>
		</g>
		<path fill="#F57F20" d="M18.005,14.977c-1.072,0-1.94,0.868-1.94,1.939c0,1.072,0.868,1.941,1.94,1.941
			c1.071,0,1.94-0.869,1.94-1.941C19.945,15.845,19.076,14.977,18.005,14.977z M18.005,17.714c-0.44,0-0.798-0.357-0.798-0.798
			c0-0.439,0.357-0.798,0.798-0.798s0.798,0.358,0.798,0.798C18.803,17.357,18.445,17.714,18.005,17.714z"/>
		<path fill="#F57F20" d="M24.441,18.984v-3.772h-1.16v0.157c-0.268-0.157-0.576-0.248-0.907-0.248c-0.99,0-1.795,0.805-1.795,1.795
			c0,0.991,0.805,1.794,1.795,1.794c0.331,0,0.642-0.09,0.907-0.246v0.521c0,0.615-1.088,0.488-1.088,0.488v0.979
			C24.695,20.451,24.441,18.984,24.441,18.984z M22.374,17.654c-0.407,0-0.738-0.33-0.738-0.737s0.331-0.738,0.738-0.738
			s0.739,0.331,0.739,0.738S22.781,17.654,22.374,17.654z"/>
	</g>
</g>
</svg>
