<?xml version="1.0" encoding="utf-8"?>
<!-- Generator: Adobe Illustrator 16.0.0, SVG Export Plug-In . SVG Version: 6.00 Build 0)  -->
<!DOCTYPE svg PUBLIC "-//W3C//DTD SVG 1.1//EN" "http://www.w3.org/Graphics/SVG/1.1/DTD/svg11.dtd">
<svg version="1.1" id="Layer_1" xmlns="http://www.w3.org/2000/svg" xmlns:xlink="http://www.w3.org/1999/xlink" x="0px" y="0px"
	 width="34px" height="34px" viewBox="0 0 34 34" enable-background="new 0 0 34 34" xml:space="preserve">
<g>
	<g>
		<circle fill-rule="evenodd" clip-rule="evenodd" fill="#F9E100" cx="17" cy="17" r="17"/>
	</g>
	<path fill="#3C1E1E" d="M17,7.312c-5.534,0-10.019,4.148-10.019,9.266c0,3.78,1.583,5.584,3.751,7.229l0.01,0.004v4.436
		c0,0.211,0.239,0.33,0.407,0.205l3.799-2.822l0.083,0.035c0.636,0.117,1.294,0.18,1.969,0.18c5.534,0,10.018-4.148,10.018-9.266
		C27.019,11.46,22.534,7.312,17,7.312 M13.642,18.926c0.982,0,1.822-0.588,2.075-1.496h1.452c-0.354,1.748-1.715,2.892-3.527,2.892
		c-2.105,0-3.774-1.57-3.774-3.755c0-2.186,1.669-3.755,3.774-3.755c1.83,0,3.2,1.168,3.538,2.946h-1.448
		c-0.22-0.966-1.089-1.568-2.089-1.568c-1.416,0-2.357,1.009-2.357,2.377C11.285,17.936,12.355,18.926,13.642,18.926 M23.212,20.18
		h-1.33v-3.002c0-0.691-0.402-1.063-1.021-1.063c-0.691,0-1.135,0.423-1.135,1.278v2.788h-1.332v-7.344h1.332v2.762
		c0.318-0.484,0.836-0.723,1.537-0.723c0.567,0,1.031,0.187,1.393,0.567c0.371,0.383,0.557,0.898,0.557,1.569V20.18z"/>
</g>
</svg>
