<?xml version="1.0" encoding="utf-8"?>
<!-- Generator: Adobe Illustrator 16.0.0, SVG Export Plug-In . SVG Version: 6.00 Build 0)  -->
<!DOCTYPE svg PUBLIC "-//W3C//DTD SVG 1.1//EN" "http://www.w3.org/Graphics/SVG/1.1/DTD/svg11.dtd">
<svg version="1.1" id="Layer_1" xmlns="http://www.w3.org/2000/svg" xmlns:xlink="http://www.w3.org/1999/xlink" x="0px" y="0px"
	 width="34px" height="34px" viewBox="0 0 34 34" enable-background="new 0 0 34 34" xml:space="preserve">
<g>
	<circle fill="#ED2024" cx="17" cy="17" r="17"/>
	<g>
		<path fill="#FFFFFF" d="M26.156,13.95c0-1.506-1.223-2.727-2.729-2.727c0,0-2.489-0.238-6.047-0.238
			c-3.559,0-6.286,0.238-6.286,0.238c-1.506,0-2.728,1.221-2.728,2.727c0,0-0.118,1.524-0.118,3.356
			c0,1.833,0.118,3.284,0.118,3.284c0,1.508,1.222,2.729,2.728,2.729c0,0,3.491,0.238,6.108,0.238c2.614,0,6.225-0.238,6.225-0.238
			c1.507,0,2.729-1.221,2.729-2.729c0,0,0.117-1.451,0.117-3.284C26.273,15.475,26.156,13.95,26.156,13.95z M15.779,19.998v-5.455
			l4.506,2.668L15.779,19.998z"/>
	</g>
</g>
</svg>
