<?xml version="1.0" encoding="utf-8"?>
<!-- Generator: Adobe Illustrator 16.0.0, SVG Export Plug-In . SVG Version: 6.00 Build 0)  -->
<!DOCTYPE svg PUBLIC "-//W3C//DTD SVG 1.1//EN" "http://www.w3.org/Graphics/SVG/1.1/DTD/svg11.dtd">
<svg version="1.1" id="Layer_1" xmlns="http://www.w3.org/2000/svg" xmlns:xlink="http://www.w3.org/1999/xlink" x="0px" y="0px"
	 width="34px" height="34px" viewBox="0 0 34 34" enable-background="new 0 0 34 34" xml:space="preserve">
<g>
	<g>
		<circle fill="#4066A6" cx="17" cy="17" r="17"/>
		<path id="Facebook_4_" fill="#FFFFFF" d="M14.417,11.409c0,0.492,0,2.683,0,2.683h-1.966v3.28h1.966v8.991h4.037v-8.998h2.709
			c0,0,0.253-1.574,0.379-3.293c-0.353,0-3.067,0-3.067,0s0-1.906,0-2.245c0-0.332,0.438-0.784,0.877-0.784c0.432,0,1.349,0,2.197,0
			c0-0.445,0-1.992,0-3.414c-1.136,0-2.424,0-2.988,0C14.316,7.637,14.417,10.917,14.417,11.409z"/>
	</g>
</g>
</svg>
