<?xml version="1.0" encoding="utf-8"?>
<!-- Generator: Adobe Illustrator 16.0.0, SVG Export Plug-In . SVG Version: 6.00 Build 0)  -->
<!DOCTYPE svg PUBLIC "-//W3C//DTD SVG 1.1//EN" "http://www.w3.org/Graphics/SVG/1.1/DTD/svg11.dtd">
<svg version="1.1" id="Layer_1" xmlns="http://www.w3.org/2000/svg" xmlns:xlink="http://www.w3.org/1999/xlink" x="0px" y="0px"
	 width="14px" height="14px" viewBox="0 0 14 14" enable-background="new 0 0 14 14" xml:space="preserve">
<path fill="#FFFFFF" d="M13.707,12.294L8.414,7l5.292-5.293c0.391-0.391,0.391-1.023,0-1.414s-1.023-0.391-1.414,0L7,5.586
	L1.708,0.293c-0.391-0.391-1.023-0.391-1.414,0c-0.39,0.391-0.39,1.023,0,1.414L5.586,7l-5.293,5.294
	c-0.391,0.391-0.391,1.023,0,1.414C0.488,13.903,0.744,14.001,1,14.001s0.512-0.098,0.707-0.293L7,8.414l5.293,5.294
	c0.195,0.195,0.451,0.293,0.707,0.293s0.512-0.098,0.707-0.293C14.098,13.317,14.098,12.685,13.707,12.294z"/>
</svg>
