<?xml version="1.0" encoding="utf-8"?>
<!-- Generator: Adobe Illustrator 16.0.0, SVG Export Plug-In . SVG Version: 6.00 Build 0)  -->
<!DOCTYPE svg PUBLIC "-//W3C//DTD SVG 1.1//EN" "http://www.w3.org/Graphics/SVG/1.1/DTD/svg11.dtd">
<svg version="1.1" id="Layer_1" xmlns="http://www.w3.org/2000/svg" xmlns:xlink="http://www.w3.org/1999/xlink" x="0px" y="0px"
	 width="10px" height="9px" viewBox="0 0 10 9" enable-background="new 0 0 10 9" xml:space="preserve">
<g id="Layer_2">
	<path fill="#B83E52" d="M5.476,9.004c-0.198,0-0.391-0.079-0.53-0.217C4.803,8.646,4.724,8.46,4.723,8.261
		C4.722,8.107,4.768,7.96,4.854,7.837l0.178-0.192l3.155-3.139L4.945,1.279C4.802,1.14,4.723,0.951,4.723,0.751
		c0-0.201,0.079-0.389,0.222-0.53c0.14-0.14,0.329-0.218,0.53-0.218c0.202,0,0.391,0.078,0.532,0.22l3.771,3.752
		C9.919,4.113,9.999,4.3,10,4.499c0.001,0.2-0.076,0.389-0.218,0.53L6.006,8.786C5.867,8.925,5.674,9.004,5.476,9.004z"/>
	<path fill="#B83E52" d="M0.75,5.257C0.336,5.257,0,4.921,0,4.506c0-0.414,0.336-0.75,0.75-0.75h8.501
		C9.664,3.757,10,4.093,10,4.506c0,0.414-0.336,0.75-0.749,0.75L0.75,5.257L0.75,5.257z"/>
</g>
</svg>
