<?xml version="1.0" encoding="utf-8"?>
<!-- Generator: Adobe Illustrator 16.0.0, SVG Export Plug-In . SVG Version: 6.00 Build 0)  -->
<!DOCTYPE svg PUBLIC "-//W3C//DTD SVG 1.1//EN" "http://www.w3.org/Graphics/SVG/1.1/DTD/svg11.dtd">
<svg version="1.1" id="Layer_1" xmlns="http://www.w3.org/2000/svg" xmlns:xlink="http://www.w3.org/1999/xlink" x="0px" y="0px"
	 width="11px" height="11px" viewBox="0 0 11 11" enable-background="new 0 0 11 11" xml:space="preserve">
<title></title>
<g id="star">
	<path fill="#40444E" d="M10.959,4.122c-0.093-0.282-0.335-0.488-0.628-0.535L7.477,3.152l-1.26-2.696
		C6.031,0.06,5.561-0.11,5.166,0.076C5,0.154,4.866,0.289,4.787,0.456L3.528,3.152L0.673,3.587c-0.431,0.065-0.729,0.468-0.664,0.9
		C0.034,4.653,0.11,4.807,0.227,4.926l2.089,2.146l-0.49,3.009c-0.07,0.433,0.223,0.839,0.653,0.909
		C2.524,10.997,2.57,11.001,2.616,11c0.138,0.002,0.274-0.032,0.395-0.099l2.492-1.395l2.516,1.395
		c0.382,0.211,0.862,0.071,1.072-0.312c0.085-0.155,0.116-0.334,0.088-0.509L8.688,7.072l2.089-2.146
		C10.983,4.713,11.053,4.403,10.959,4.122z"/>
</g>
</svg>
