<?xml version="1.0" encoding="utf-8"?>
<!-- Generator: Adobe Illustrator 16.0.0, SVG Export Plug-In . SVG Version: 6.00 Build 0)  -->
<!DOCTYPE svg PUBLIC "-//W3C//DTD SVG 1.1//EN" "http://www.w3.org/Graphics/SVG/1.1/DTD/svg11.dtd">
<svg version="1.1" id="Layer_1" xmlns="http://www.w3.org/2000/svg" xmlns:xlink="http://www.w3.org/1999/xlink" x="0px" y="0px"
	 width="12px" height="12px" viewBox="0 0 12 12" enable-background="new 0 0 12 12" xml:space="preserve">
<path fill="#31323D" d="M10.75,4.75h-3.5v-3.5C7.25,0.56,6.689,0,6,0C5.31,0,4.75,0.56,4.75,1.25v3.5h-3.5C0.56,4.75,0,5.31,0,6
	c0,0.689,0.56,1.25,1.25,1.25h3.5v3.5C4.75,11.439,5.31,12,6,12c0.689,0,1.25-0.561,1.25-1.25v-3.5h3.5C11.439,7.25,12,6.689,12,6
	C12,5.31,11.439,4.75,10.75,4.75z"/>
</svg>
