<?xml version="1.0" encoding="utf-8"?>
<!-- Generator: Adobe Illustrator 16.0.0, SVG Export Plug-In . SVG Version: 6.00 Build 0)  -->
<!DOCTYPE svg PUBLIC "-//W3C//DTD SVG 1.1//EN" "http://www.w3.org/Graphics/SVG/1.1/DTD/svg11.dtd">
<svg version="1.1" id="Layer_1" xmlns="http://www.w3.org/2000/svg" xmlns:xlink="http://www.w3.org/1999/xlink" x="0px" y="0px"
	 width="19px" height="19px" viewBox="0 0.021 19 19" enable-background="new 0 0.021 19 19" xml:space="preserve">
<title></title>
<g id="search">
	<path fill="#FFFFFF" stroke="#FFFFFF" stroke-miterlimit="10" d="M18.309,17.415l-4.175-4.175h-0.045
		c2.753-3.247,2.354-8.111-0.894-10.866C9.949-0.381,5.084,0.02,2.33,3.266c-2.754,3.248-2.354,8.112,0.893,10.866
		c2.877,2.439,7.096,2.439,9.972,0c0,0,0,0.032,0,0.045l4.176,4.176c0.25,0.252,0.657,0.253,0.909,0.004
		c0.001-0.002,0.002-0.003,0.003-0.004c0.266-0.236,0.291-0.642,0.056-0.907C18.329,17.436,18.318,17.426,18.309,17.415z
		 M8.217,14.66c-3.548,0-6.424-2.876-6.424-6.425s2.876-6.424,6.424-6.424s6.424,2.876,6.424,6.424S11.765,14.66,8.217,14.66z"/>
</g>
</svg>
