<?xml version="1.0" encoding="utf-8"?>
<!-- Generator: Adobe Illustrator 16.0.0, SVG Export Plug-In . SVG Version: 6.00 Build 0)  -->
<!DOCTYPE svg PUBLIC "-//W3C//DTD SVG 1.1//EN" "http://www.w3.org/Graphics/SVG/1.1/DTD/svg11.dtd">
<svg version="1.1" id="Layer_1" xmlns="http://www.w3.org/2000/svg" xmlns:xlink="http://www.w3.org/1999/xlink" x="0px" y="0px"
	 width="20px" height="20px" viewBox="0 0 20 20" enable-background="new 0 0 20 20" xml:space="preserve">
<path fill="#FFFFFF" d="M10,0c1.105,0,2,0.896,2,2v6h6c1.105,0,2,0.896,2,2c0,1.105-0.895,2-2,2h-6v6c0,1.105-0.895,2-2,2
	c-1.104,0-2-0.895-2-2v-6H2c-1.104,0-2-0.895-2-2c0-1.104,0.896-2,2-2h6V2C8,0.896,8.896,0,10,0z"/>
</svg>
