<?xml version="1.0" encoding="utf-8"?>
<!-- Generator: Adobe Illustrator 16.0.0, SVG Export Plug-In . SVG Version: 6.00 Build 0)  -->
<!DOCTYPE svg PUBLIC "-//W3C//DTD SVG 1.1//EN" "http://www.w3.org/Graphics/SVG/1.1/DTD/svg11.dtd">
<svg version="1.1" id="Flat" xmlns="http://www.w3.org/2000/svg" xmlns:xlink="http://www.w3.org/1999/xlink" x="0px" y="0px"
	 width="9px" height="9px" viewBox="0 0 9 9" enable-background="new 0 0 9 9" xml:space="preserve">
<path fill="#DCDCE1" d="M0.902,9c-0.243,0-0.47-0.094-0.64-0.266C0.093,8.566,0,8.342,0,8.1c0-0.24,0.094-0.466,0.264-0.635
	L5.928,1.8H1.922c-0.497,0-0.9-0.404-0.9-0.9c0-0.239,0.093-0.464,0.262-0.634C1.454,0.094,1.681,0,1.922,0h6.18
	C8.598,0,9,0.404,9,0.901v6.177c0,0.495-0.404,0.898-0.9,0.898S7.2,7.573,7.2,7.078V3.073L1.537,8.739C1.365,8.907,1.139,9,0.902,9z
	"/>
</svg>
