<?xml version="1.0" encoding="utf-8"?>
<!-- Generator: Adobe Illustrator 16.0.0, SVG Export Plug-In . SVG Version: 6.00 Build 0)  -->
<!DOCTYPE svg PUBLIC "-//W3C//DTD SVG 1.1//EN" "http://www.w3.org/Graphics/SVG/1.1/DTD/svg11.dtd">
<svg version="1.1" id="Layer_1" xmlns="http://www.w3.org/2000/svg" xmlns:xlink="http://www.w3.org/1999/xlink" x="0px" y="0px"
	 width="15px" height="15px" viewBox="-5.031 -1 15 15" enable-background="new -5.031 -1 15 15" xml:space="preserve">
<path fill="#6E6F72" d="M2.469,14c-4.136,0-7.5-3.364-7.5-7.5S-1.667-1,2.469-1s7.5,3.364,7.5,7.5S6.604,14,2.469,14z M2.469,0.504
	c-3.306,0-5.996,2.69-5.996,5.996s2.69,5.995,5.996,5.995S8.464,9.806,8.464,6.5S5.774,0.504,2.469,0.504z"/>
<path fill="#6E6F72" d="M-0.188,9.846c-0.205,0-0.395-0.079-0.535-0.221c-0.295-0.296-0.293-0.774,0.001-1.066l2.421-2.369v-3.75
	c0-0.415,0.338-0.752,0.752-0.752c0.416,0,0.753,0.337,0.753,0.752V6.5c0,0.202-0.078,0.392-0.218,0.533L0.345,9.627
	C0.206,9.768,0.016,9.846-0.188,9.846z"/>
</svg>
