<?xml version="1.0" encoding="utf-8"?>
<!-- Generator: Adobe Illustrator 16.0.0, SVG Export Plug-In . SVG Version: 6.00 Build 0)  -->
<!DOCTYPE svg PUBLIC "-//W3C//DTD SVG 1.1//EN" "http://www.w3.org/Graphics/SVG/1.1/DTD/svg11.dtd">
<svg version="1.1" id="Layer_1" xmlns="http://www.w3.org/2000/svg" xmlns:xlink="http://www.w3.org/1999/xlink" x="0px" y="0px"
	 width="11px" height="13px" viewBox="0 0 11 13" enable-background="new 0 0 11 13" xml:space="preserve">
<g id="pause_1_">
	<path fill="#31323D" d="M8.598,0H10.6C10.822,0,11,0.208,11,0.464v12.07C11,12.791,10.82,13,10.6,13H8.598
		C8.377,13,8.2,12.791,8.2,12.534V0.463C8.199,0.208,8.377,0,8.598,0z"/>
	<path fill="#31323D" d="M0.397,0h2.002c0.223,0,0.4,0.209,0.4,0.465v12.07C2.8,12.791,2.62,13,2.399,13H0.397
		C0.176,13,0,12.791,0,12.534V0.463C-0.001,0.208,0.176,0,0.397,0z"/>
</g>
</svg>
